<svg xmlns="http://www.w3.org/2000/svg" viewBox="0 0 24 24" role="img" aria-label="Activity settings">
  <path fill="none" stroke="#cbd2dc" stroke-linecap="round" stroke-linejoin="round" stroke-width="1.6" d="m10 3.5-.5 2.2a6.6 6.6 0 0 0-1.3.8L6 5.8 3.8 9.5l1.7 1.5a6.3 6.3 0 0 0 0 2L3.8 14.5 6 18.2l2.2-.7c.4.3.8.5 1.3.7l.5 2.3h4l.5-2.3c.5-.2.9-.4 1.3-.7l2.2.7 2.2-3.7-1.7-1.5a6.3 6.3 0 0 0 0-2l1.7-1.5L18 5.8l-2.2.7a6.6 6.6 0 0 0-1.3-.8L14 3.5z"/>
  <circle cx="12" cy="12" r="2.5" fill="none" stroke="#26d8d1" stroke-width="1.4"/>
</svg>
