<svg xmlns="http://www.w3.org/2000/svg" viewBox="0 0 420 160" role="img" aria-label="Neon streets project cover">
  <defs>
    <linearGradient id="night" x1="0" y1="0" x2="0" y2="1"><stop stop-color="#101427"/><stop offset="0.6" stop-color="#11131d"/><stop offset="1" stop-color="#05070c"/></linearGradient>
    <linearGradient id="road" x1="0" y1="0" x2="0" y2="1"><stop stop-color="#152332"/><stop offset="1" stop-color="#06090f"/></linearGradient>
  </defs>
  <rect width="420" height="160" fill="url(#night)"/>
  <path fill="#111826" d="M18 24h58v112H18zM98 9h70v122H98zM256 20h54v116h-54zM331 4h70v137h-70z"/>
  <path fill="#1f2941" d="M184 48h48v84h-48z"/>
  <g fill="#28e8ff"><rect x="35" y="42" width="16" height="4"/><rect x="113" y="28" width="28" height="4"/><rect x="270" y="42" width="25" height="4"/><rect x="348" y="24" width="32" height="4"/></g>
  <g fill="#ff3fd2"><rect x="42" y="70" width="18" height="4"/><rect x="111" y="58" width="15" height="4"/><rect x="198" y="68" width="21" height="4"/><rect x="353" y="55" width="19" height="4"/></g>
  <path fill="url(#road)" d="m143 160 52-58h30l52 58z"/>
  <path fill="none" stroke="#2af4ff" stroke-width="3" d="m194 105-37 55M225 105l38 55" opacity="0.8"/>
  <path fill="none" stroke="#ff3fd2" stroke-width="2" d="M209 106v54" opacity="0.8"/>
  <circle cx="84" cy="126" r="8" fill="#2af4ff" opacity="0.55"/>
  <circle cx="310" cy="116" r="6" fill="#ff3fd2" opacity="0.55"/>
</svg>
