<svg xmlns="http://www.w3.org/2000/svg" viewBox="0 0 420 160" role="img" aria-label="Sands of time project cover">
  <defs>
    <linearGradient id="sand" x1="0" y1="0" x2="0" y2="1"><stop stop-color="#d7c294"/><stop offset="0.5" stop-color="#9a7242"/><stop offset="1" stop-color="#332316"/></linearGradient>
  </defs>
  <rect width="420" height="160" fill="url(#sand)"/>
  <circle cx="328" cy="38" r="25" fill="#f0dfb6" opacity="0.55"/>
  <path fill="#5a371f" d="M0 128c51-27 102-37 153-29 46 8 92 25 142 11 44-12 85-5 125 17v33H0z"/>
  <path fill="#7a4c2b" d="M41 111h78v18H41zM57 66h14v45H57zm32 0h14v45H89z"/>
  <path fill="#9f693a" d="M48 56h64v13H48zm-7 73h78v10H41z"/>
  <path fill="#5b3820" d="M218 125V73h76v52z"/>
  <path fill="#8a5a32" d="M207 62h98v14h-98zm12 14 18-14 18 14zm38 0 18-14 18 14z"/>
  <path fill="#2a1b13" d="M242 125V91h28v34z"/>
  <path fill="none" stroke="#d7a35a" stroke-width="3" d="M0 123c70-29 139-29 207 0 70 29 141 26 213-9" opacity="0.7"/>
  <path fill="#3b2518" d="m347 55 32 5-6 71h-20z"/>
</svg>
