<svg xmlns="http://www.w3.org/2000/svg" viewBox="0 0 24 24" role="img" aria-label="Settings">
  <path fill="none" stroke="#a6fff7" stroke-linecap="round" stroke-linejoin="round" stroke-width="1.7" d="m10.1 3.4-.5 2.3a7.2 7.2 0 0 0-1.4.8L6 5.8 3.8 9.6l1.7 1.6a7.4 7.4 0 0 0 0 1.6l-1.7 1.6L6 18.2l2.2-.7c.4.3.9.6 1.4.8l.5 2.3h4.4l.5-2.3c.5-.2 1-.5 1.4-.8l2.2.7 2.2-3.8-1.7-1.6a7.4 7.4 0 0 0 0-1.6l1.7-1.6-2.2-3.8-2.2.7a7.2 7.2 0 0 0-1.4-.8l-.5-2.3z"/>
  <circle cx="12.3" cy="12" r="2.7" fill="none" stroke="#36d7cf" stroke-width="1.6"/>
</svg>
